<svg width="49" height="17" viewBox="0 0 49 17" fill="none" xmlns="http://www.w3.org/2000/svg">
<path d="M0.32 17V0.199999H7.112C8.968 0.199999 10.592 0.503999 11.984 1.112C13.392 1.704 14.488 2.624 15.272 3.872C16.056 5.12 16.448 6.704 16.448 8.624C16.448 10.416 16.064 11.936 15.296 13.184C14.528 14.432 13.432 15.384 12.008 16.04C10.584 16.68 8.896 17 6.944 17H0.32ZM5.672 12.32H6.944C7.92 12.32 8.696 12.192 9.272 11.936C9.864 11.68 10.296 11.28 10.568 10.736C10.84 10.192 10.976 9.488 10.976 8.624C10.976 7.616 10.848 6.848 10.592 6.32C10.352 5.776 9.936 5.4 9.344 5.192C8.752 4.984 7.952 4.88 6.944 4.88H5.672V12.32ZM42.2577 17L38.4897 10.472H35.8017V6.512H38.5857L42.4977 0.199999H47.9937L42.9057 8.24L48.4017 17H42.2577ZM32.2497 17V0.199999H37.6017V17H32.2497Z" fill="black"/>
<path d="M16.6013 17V0.199999H26.2733C27.4573 0.199999 28.4413 0.407999 29.2253 0.823999C30.0253 1.224 30.6253 1.784 31.0253 2.504C31.4413 3.208 31.6493 4.008 31.6493 4.904C31.6493 5.496 31.5293 6.096 31.2893 6.704C31.0653 7.312 30.6813 7.848 30.1373 8.312V8.36C30.8093 8.664 31.3373 9.12 31.7213 9.728C32.1213 10.336 32.3213 10.992 32.3213 11.696C32.3213 12.72 32.0973 13.632 31.6493 14.432C31.2173 15.232 30.5693 15.864 29.7053 16.328C28.8573 16.776 27.7933 17 26.5133 17H16.6013ZM21.9533 12.776H24.9053C25.5293 12.776 26.0093 12.688 26.3453 12.512C26.6813 12.32 26.8493 11.96 26.8493 11.432C26.8493 10.936 26.7293 10.576 26.4893 10.352C26.2493 10.128 25.8573 10.016 25.3133 10.016H21.9533V12.776ZM21.9533 6.848H25.1453C25.6093 6.848 25.9773 6.744 26.2493 6.536C26.5213 6.312 26.6573 5.968 26.6573 5.504C26.6573 5.04 26.5133 4.704 26.2253 4.496C25.9373 4.272 25.4653 4.16 24.8093 4.16H21.9533V6.848Z" fill="#FFCD39"/>
</svg>
